<mxfile host="app.diagrams.net" modified="2022-05-08T08:18:14.702Z" agent="5.0 (Windows NT 10.0; Win64; x64) AppleWebKit/537.36 (KHTML, like Gecko) Chrome/101.0.4951.54 Safari/537.36" etag="6RBZAOJy-LcXMDelu6qD" version="18.0.2" type="github">
  <diagram id="u9jRpjtpv7C5E6yKHhyb" name="Page-1">
    <mxGraphModel dx="1221" dy="625" grid="1" gridSize="10" guides="1" tooltips="1" connect="1" arrows="1" fold="1" page="1" pageScale="1" pageWidth="850" pageHeight="1100" math="0" shadow="0">
      <root>
        <mxCell id="0" />
        <mxCell id="1" parent="0" />
        <mxCell id="pbQWXqWH24ektuUl1K9f-31" value="" style="group" vertex="1" connectable="0" parent="1">
          <mxGeometry x="30" y="30" width="790" height="590" as="geometry" />
        </mxCell>
        <mxCell id="Rc88JlibP4XmBdhUvNyP-1" value="" style="rounded=0;whiteSpace=wrap;html=1;" parent="pbQWXqWH24ektuUl1K9f-31" vertex="1">
          <mxGeometry width="790.0000000000001" height="590" as="geometry" />
        </mxCell>
        <mxCell id="Rc88JlibP4XmBdhUvNyP-2" value="&lt;b&gt;&lt;font style=&quot;font-size: 16px;&quot;&gt;User&lt;/font&gt;&lt;/b&gt;" style="rounded=0;whiteSpace=wrap;html=1;" parent="pbQWXqWH24ektuUl1K9f-31" vertex="1">
          <mxGeometry width="395.00000000000006" height="32.77777777777778" as="geometry" />
        </mxCell>
        <mxCell id="Rc88JlibP4XmBdhUvNyP-3" value="&lt;b&gt;&lt;font style=&quot;font-size: 16px;&quot;&gt;Sistem&lt;/font&gt;&lt;/b&gt;" style="rounded=0;whiteSpace=wrap;html=1;" parent="pbQWXqWH24ektuUl1K9f-31" vertex="1">
          <mxGeometry x="395.00000000000006" width="395.00000000000006" height="32.77777777777778" as="geometry" />
        </mxCell>
        <mxCell id="Rc88JlibP4XmBdhUvNyP-4" value="" style="rounded=0;whiteSpace=wrap;html=1;" parent="pbQWXqWH24ektuUl1K9f-31" vertex="1">
          <mxGeometry y="32.77777777777778" width="395.00000000000006" height="557.2222222222222" as="geometry" />
        </mxCell>
        <mxCell id="pbQWXqWH24ektuUl1K9f-16" value="" style="group;fontSize=14;" vertex="1" connectable="0" parent="pbQWXqWH24ektuUl1K9f-31">
          <mxGeometry x="113.94230769230771" y="65.55555555555556" width="546.923076923077" height="360.55555555555554" as="geometry" />
        </mxCell>
        <mxCell id="pbQWXqWH24ektuUl1K9f-3" value="" style="ellipse;whiteSpace=wrap;html=1;aspect=fixed;fillColor=#000000;" vertex="1" parent="pbQWXqWH24ektuUl1K9f-16">
          <mxGeometry x="53.173076923076934" width="29.706293706293707" height="29.706293706293707" as="geometry" />
        </mxCell>
        <mxCell id="pbQWXqWH24ektuUl1K9f-4" value="&lt;font style=&quot;font-size: 14px;&quot;&gt;&lt;span style=&quot;margin: 0px; padding: 0px; user-select: text; -webkit-user-drag: none; -webkit-tap-highlight-color: transparent; text-align: left; background-color: rgb(255, 255, 255); line-height: 20.7px; font-family: Arial, Arial_EmbeddedFont, Arial_MSFontService, sans-serif; font-variant-ligatures: none !important;&quot; class=&quot;TextRun SCXW1067999 BCX0&quot; lang=&quot;EN-GB&quot; data-contrast=&quot;none&quot;&gt;&lt;span style=&quot;margin: 0px; padding: 0px; user-select: text; -webkit-user-drag: none; -webkit-tap-highlight-color: transparent;&quot; class=&quot;NormalTextRun SCXW1067999 BCX0&quot;&gt;User &lt;/span&gt;&lt;span style=&quot;margin: 0px; padding: 0px; user-select: text; -webkit-user-drag: none; -webkit-tap-highlight-color: transparent; background-repeat: repeat-x; background-position: left bottom; background-image: url(&amp;quot;data:image/gif;base64,R0lGODlhBQAEAJECAP////8AAAAAAAAAACH5BAEAAAIALAAAAAAFAAQAAAIIlGAXCCHrTCgAOw==&amp;quot;); border-bottom: 1px solid transparent;&quot; class=&quot;SpellingError SCXW1067999 BCX0&quot;&gt;memasuki laman&lt;/span&gt;&lt;span style=&quot;margin: 0px; padding: 0px; user-select: text; -webkit-user-drag: none; -webkit-tap-highlight-color: transparent;&quot; class=&quot;NormalTextRun SCXW1067999 BCX0&quot;&gt; &lt;/span&gt;&lt;span style=&quot;margin: 0px; padding: 0px; user-select: text; -webkit-user-drag: none; -webkit-tap-highlight-color: transparent; background-repeat: repeat-x; background-position: left bottom; background-image: url(&amp;quot;data:image/gif;base64,R0lGODlhBQAEAJECAP////8AAAAAAAAAACH5BAEAAAIALAAAAAAFAAQAAAIIlGAXCCHrTCgAOw==&amp;quot;); border-bottom: 1px solid transparent;&quot; class=&quot;SpellingError SCXW1067999 BCX0&quot;&gt;katalog&lt;/span&gt;&lt;/span&gt;&lt;span style=&quot;margin: 0px; padding: 0px; user-select: text; -webkit-user-drag: none; -webkit-tap-highlight-color: transparent; text-align: left; background-color: rgb(255, 255, 255); line-height: 20.7px; font-family: Arial, Arial_EmbeddedFont, Arial_MSFontService, sans-serif;&quot; data-ccp-props=&quot;{&amp;quot;335559685&amp;quot;:317,&amp;quot;335559740&amp;quot;:276,&amp;quot;335559991&amp;quot;:317}&quot; class=&quot;EOP SCXW1067999 BCX0&quot;&gt;&amp;nbsp;&lt;/span&gt;&lt;/font&gt;" style="rounded=1;whiteSpace=wrap;html=1;fillColor=#FFFFFF;" vertex="1" parent="pbQWXqWH24ektuUl1K9f-16">
          <mxGeometry y="81.94444444444444" width="136.73076923076925" height="65.55555555555556" as="geometry" />
        </mxCell>
        <mxCell id="pbQWXqWH24ektuUl1K9f-8" style="edgeStyle=orthogonalEdgeStyle;rounded=0;orthogonalLoop=1;jettySize=auto;html=1;exitX=0.5;exitY=1;exitDx=0;exitDy=0;entryX=0.5;entryY=0;entryDx=0;entryDy=0;fontSize=10;" edge="1" parent="pbQWXqWH24ektuUl1K9f-16" source="pbQWXqWH24ektuUl1K9f-3" target="pbQWXqWH24ektuUl1K9f-4">
          <mxGeometry relative="1" as="geometry" />
        </mxCell>
        <mxCell id="pbQWXqWH24ektuUl1K9f-5" value="&lt;font style=&quot;font-size: 14px;&quot;&gt;&lt;span style=&quot;margin: 0px; padding: 0px; user-select: text; -webkit-user-drag: none; -webkit-tap-highlight-color: transparent; text-align: left; background-color: rgb(255, 255, 255); line-height: 20.7px; font-family: Arial, Arial_EmbeddedFont, Arial_MSFontService, sans-serif; font-variant-ligatures: none !important;&quot; class=&quot;TextRun SCXW1067999 BCX0&quot; lang=&quot;EN-GB&quot; data-contrast=&quot;none&quot;&gt;&lt;span style=&quot;margin: 0px; padding: 0px; user-select: text; -webkit-user-drag: none; -webkit-tap-highlight-color: transparent;&quot; class=&quot;NormalTextRun SCXW1067999 BCX0&quot;&gt;User &lt;/span&gt;&lt;span style=&quot;margin: 0px; padding: 0px; user-select: text; -webkit-user-drag: none; -webkit-tap-highlight-color: transparent; background-repeat: repeat-x; background-position: left bottom; background-image: url(&amp;quot;data:image/gif;base64,R0lGODlhBQAEAJECAP////8AAAAAAAAAACH5BAEAAAIALAAAAAAFAAQAAAIIlGAXCCHrTCgAOw==&amp;quot;); border-bottom: 1px solid transparent;&quot; class=&quot;SpellingError SCXW1067999 BCX0&quot;&gt;memasuki&lt;/span&gt;&lt;span style=&quot;margin: 0px; padding: 0px; user-select: text; -webkit-user-drag: none; -webkit-tap-highlight-color: transparent;&quot; class=&quot;NormalTextRun SCXW1067999 BCX0&quot;&gt; &lt;/span&gt;&lt;span style=&quot;margin: 0px; padding: 0px; user-select: text; -webkit-user-drag: none; -webkit-tap-highlight-color: transparent; background-repeat: repeat-x; background-position: left bottom; background-image: url(&amp;quot;data:image/gif;base64,R0lGODlhBQAEAJECAP////8AAAAAAAAAACH5BAEAAAIALAAAAAAFAAQAAAIIlGAXCCHrTCgAOw==&amp;quot;); border-bottom: 1px solid transparent;&quot; class=&quot;SpellingError SCXW1067999 BCX0&quot;&gt;katalog&lt;/span&gt;&lt;/span&gt;&lt;span style=&quot;margin: 0px; padding: 0px; user-select: text; -webkit-user-drag: none; -webkit-tap-highlight-color: transparent; text-align: left; background-color: rgb(255, 255, 255); line-height: 20.7px; font-family: Arial, Arial_EmbeddedFont, Arial_MSFontService, sans-serif;&quot; data-ccp-props=&quot;{&amp;quot;335559685&amp;quot;:317,&amp;quot;335559740&amp;quot;:276,&amp;quot;335559991&amp;quot;:317}&quot; class=&quot;EOP SCXW1067999 BCX0&quot;&gt;&amp;nbsp;&lt;/span&gt;&lt;/font&gt;" style="rounded=1;whiteSpace=wrap;html=1;fillColor=#FFFFFF;" vertex="1" parent="pbQWXqWH24ektuUl1K9f-16">
          <mxGeometry x="410.19230769230774" y="81.94444444444444" width="136.73076923076925" height="65.55555555555556" as="geometry" />
        </mxCell>
        <mxCell id="pbQWXqWH24ektuUl1K9f-7" style="edgeStyle=orthogonalEdgeStyle;rounded=0;orthogonalLoop=1;jettySize=auto;html=1;exitX=1;exitY=0.5;exitDx=0;exitDy=0;entryX=0;entryY=0.5;entryDx=0;entryDy=0;fontSize=10;" edge="1" parent="pbQWXqWH24ektuUl1K9f-16" source="pbQWXqWH24ektuUl1K9f-4" target="pbQWXqWH24ektuUl1K9f-5">
          <mxGeometry relative="1" as="geometry">
            <Array as="points">
              <mxPoint x="341.8269230769231" y="114.72222222222223" />
              <mxPoint x="341.8269230769231" y="114.72222222222223" />
            </Array>
          </mxGeometry>
        </mxCell>
        <mxCell id="pbQWXqWH24ektuUl1K9f-9" value="&lt;font style=&quot;font-size: 14px;&quot;&gt;&lt;span style=&quot;margin: 0px; padding: 0px; user-select: text; -webkit-user-drag: none; -webkit-tap-highlight-color: transparent; text-align: left; background-color: rgb(255, 255, 255); line-height: 20.7px; font-family: Arial, Arial_EmbeddedFont, Arial_MSFontService, sans-serif; font-variant-ligatures: none !important;&quot; class=&quot;TextRun SCXW128498838 BCX0&quot; lang=&quot;EN-GB&quot; data-contrast=&quot;none&quot;&gt;&lt;span style=&quot;margin: 0px; padding: 0px; user-select: text; -webkit-user-drag: none; -webkit-tap-highlight-color: transparent;&quot; class=&quot;NormalTextRun SCXW128498838 BCX0&quot;&gt;User &lt;/span&gt;&lt;span style=&quot;margin: 0px; padding: 0px; user-select: text; -webkit-user-drag: none; -webkit-tap-highlight-color: transparent; background-repeat: repeat-x; background-position: left bottom; background-image: url(&amp;quot;data:image/gif;base64,R0lGODlhBQAEAJECAP////8AAAAAAAAAACH5BAEAAAIALAAAAAAFAAQAAAIIlGAXCCHrTCgAOw==&amp;quot;); border-bottom: 1px solid transparent;&quot; class=&quot;SpellingError SCXW128498838 BCX0&quot;&gt;memilih&lt;/span&gt;&lt;span style=&quot;margin: 0px; padding: 0px; user-select: text; -webkit-user-drag: none; -webkit-tap-highlight-color: transparent;&quot; class=&quot;NormalTextRun SCXW128498838 BCX0&quot;&gt; &lt;/span&gt;&lt;span style=&quot;margin: 0px; padding: 0px; user-select: text; -webkit-user-drag: none; -webkit-tap-highlight-color: transparent; background-repeat: repeat-x; background-position: left bottom; background-image: url(&amp;quot;data:image/gif;base64,R0lGODlhBQAEAJECAP////8AAAAAAAAAACH5BAEAAAIALAAAAAAFAAQAAAIIlGAXCCHrTCgAOw==&amp;quot;); border-bottom: 1px solid transparent;&quot; class=&quot;SpellingError SCXW128498838 BCX0&quot;&gt;indekos&lt;/span&gt;&lt;/span&gt;&lt;span style=&quot;margin: 0px; padding: 0px; user-select: text; -webkit-user-drag: none; -webkit-tap-highlight-color: transparent; text-align: left; background-color: rgb(255, 255, 255); line-height: 20.7px; font-family: Arial, Arial_EmbeddedFont, Arial_MSFontService, sans-serif;&quot; data-ccp-props=&quot;{&amp;quot;335559685&amp;quot;:317,&amp;quot;335559740&amp;quot;:276,&amp;quot;335559991&amp;quot;:317}&quot; class=&quot;EOP SCXW128498838 BCX0&quot;&gt;&amp;nbsp;&lt;/span&gt;&lt;/font&gt;" style="rounded=1;whiteSpace=wrap;html=1;fillColor=#FFFFFF;" vertex="1" parent="pbQWXqWH24ektuUl1K9f-16">
          <mxGeometry y="245.83333333333334" width="136.73076923076925" height="65.55555555555556" as="geometry" />
        </mxCell>
        <mxCell id="pbQWXqWH24ektuUl1K9f-10" style="edgeStyle=orthogonalEdgeStyle;rounded=0;orthogonalLoop=1;jettySize=auto;html=1;exitX=0.5;exitY=1;exitDx=0;exitDy=0;entryX=0.664;entryY=-0.076;entryDx=0;entryDy=0;entryPerimeter=0;fontSize=10;" edge="1" parent="pbQWXqWH24ektuUl1K9f-16" source="pbQWXqWH24ektuUl1K9f-5" target="pbQWXqWH24ektuUl1K9f-9">
          <mxGeometry relative="1" as="geometry">
            <Array as="points">
              <mxPoint x="478.5576923076924" y="213.05555555555557" />
              <mxPoint x="91.15384615384616" y="213.05555555555557" />
            </Array>
          </mxGeometry>
        </mxCell>
        <mxCell id="pbQWXqWH24ektuUl1K9f-11" value="&lt;font style=&quot;font-size: 14px;&quot;&gt;&lt;span style=&quot;margin: 0px; padding: 0px; user-select: text; -webkit-user-drag: none; -webkit-tap-highlight-color: transparent; text-align: left; background-color: rgb(255, 255, 255); line-height: 20.7px; font-family: Arial, Arial_EmbeddedFont, Arial_MSFontService, sans-serif; font-variant-ligatures: none !important;&quot; class=&quot;TextRun SCXW161692829 BCX0&quot; lang=&quot;EN-GB&quot; data-contrast=&quot;none&quot;&gt;&lt;span style=&quot;margin: 0px; padding: 0px; user-select: text; -webkit-user-drag: none; -webkit-tap-highlight-color: transparent;&quot; class=&quot;NormalTextRun SCXW161692829 BCX0&quot;&gt;Sistem&lt;/span&gt;&lt;span style=&quot;margin: 0px; padding: 0px; user-select: text; -webkit-user-drag: none; -webkit-tap-highlight-color: transparent;&quot; class=&quot;NormalTextRun SCXW161692829 BCX0&quot;&gt; &lt;/span&gt;&lt;span style=&quot;margin: 0px; padding: 0px; user-select: text; -webkit-user-drag: none; -webkit-tap-highlight-color: transparent; background-repeat: repeat-x; background-position: left bottom; background-image: url(&amp;quot;data:image/gif;base64,R0lGODlhBQAEAJECAP////8AAAAAAAAAACH5BAEAAAIALAAAAAAFAAQAAAIIlGAXCCHrTCgAOw==&amp;quot;); border-bottom: 1px solid transparent;&quot; class=&quot;SpellingError SCXW161692829 BCX0&quot;&gt;menampilkan&lt;/span&gt;&lt;span style=&quot;margin: 0px; padding: 0px; user-select: text; -webkit-user-drag: none; -webkit-tap-highlight-color: transparent;&quot; class=&quot;NormalTextRun SCXW161692829 BCX0&quot;&gt; &lt;/span&gt;&lt;span style=&quot;margin: 0px; padding: 0px; user-select: text; -webkit-user-drag: none; -webkit-tap-highlight-color: transparent; background-repeat: repeat-x; background-position: left bottom; background-image: url(&amp;quot;data:image/gif;base64,R0lGODlhBQAEAJECAP////8AAAAAAAAAACH5BAEAAAIALAAAAAAFAAQAAAIIlGAXCCHrTCgAOw==&amp;quot;); border-bottom: 1px solid transparent;&quot; class=&quot;SpellingError SCXW161692829 BCX0&quot;&gt;informasi&lt;/span&gt;&lt;span style=&quot;margin: 0px; padding: 0px; user-select: text; -webkit-user-drag: none; -webkit-tap-highlight-color: transparent;&quot; class=&quot;NormalTextRun SCXW161692829 BCX0&quot;&gt; &lt;/span&gt;&lt;span style=&quot;margin: 0px; padding: 0px; user-select: text; -webkit-user-drag: none; -webkit-tap-highlight-color: transparent; background-repeat: repeat-x; background-position: left bottom; background-image: url(&amp;quot;data:image/gif;base64,R0lGODlhBQAEAJECAP////8AAAAAAAAAACH5BAEAAAIALAAAAAAFAAQAAAIIlGAXCCHrTCgAOw==&amp;quot;); border-bottom: 1px solid transparent;&quot; class=&quot;SpellingError SCXW161692829 BCX0&quot;&gt;indekos&lt;/span&gt;&lt;/span&gt;&lt;span style=&quot;margin: 0px; padding: 0px; user-select: text; -webkit-user-drag: none; -webkit-tap-highlight-color: transparent; text-align: left; background-color: rgb(255, 255, 255); line-height: 20.7px; font-family: Arial, Arial_EmbeddedFont, Arial_MSFontService, sans-serif;&quot; data-ccp-props=&quot;{&amp;quot;335559740&amp;quot;:276}&quot; class=&quot;EOP SCXW161692829 BCX0&quot;&gt;&amp;nbsp;&lt;/span&gt;&lt;/font&gt;" style="rounded=1;whiteSpace=wrap;html=1;fillColor=#FFFFFF;" vertex="1" parent="pbQWXqWH24ektuUl1K9f-16">
          <mxGeometry x="387.4038461538462" y="295" width="159.51923076923077" height="65.55555555555556" as="geometry" />
        </mxCell>
        <mxCell id="pbQWXqWH24ektuUl1K9f-13" style="edgeStyle=orthogonalEdgeStyle;rounded=0;orthogonalLoop=1;jettySize=auto;html=1;exitX=1;exitY=0.5;exitDx=0;exitDy=0;entryX=0;entryY=0.5;entryDx=0;entryDy=0;fontSize=10;" edge="1" parent="pbQWXqWH24ektuUl1K9f-16" source="pbQWXqWH24ektuUl1K9f-9" target="pbQWXqWH24ektuUl1K9f-11">
          <mxGeometry relative="1" as="geometry">
            <Array as="points">
              <mxPoint x="250.67307692307696" y="278.6111111111111" />
              <mxPoint x="250.67307692307696" y="327.77777777777777" />
            </Array>
          </mxGeometry>
        </mxCell>
        <mxCell id="pbQWXqWH24ektuUl1K9f-28" value="" style="ellipse;whiteSpace=wrap;html=1;aspect=fixed;fillColor=#000000;" vertex="1" parent="pbQWXqWH24ektuUl1K9f-31">
          <mxGeometry x="565.9134615384617" y="491.6666666666667" width="29.706293706293707" height="29.706293706293707" as="geometry" />
        </mxCell>
        <mxCell id="pbQWXqWH24ektuUl1K9f-29" value="" style="ellipse;whiteSpace=wrap;html=1;aspect=fixed;fillColor=none;strokeColor=default;" vertex="1" parent="pbQWXqWH24ektuUl1K9f-31">
          <mxGeometry x="558.3173076923077" y="483.4722222222222" width="44.55944055944056" height="44.55944055944056" as="geometry" />
        </mxCell>
        <mxCell id="pbQWXqWH24ektuUl1K9f-30" style="edgeStyle=orthogonalEdgeStyle;rounded=0;orthogonalLoop=1;jettySize=auto;html=1;exitX=0.5;exitY=1;exitDx=0;exitDy=0;fontSize=10;" edge="1" parent="pbQWXqWH24ektuUl1K9f-31" source="pbQWXqWH24ektuUl1K9f-11" target="pbQWXqWH24ektuUl1K9f-29">
          <mxGeometry relative="1" as="geometry" />
        </mxCell>
      </root>
    </mxGraphModel>
  </diagram>
</mxfile>
